<svg width="88" height="42" viewBox="0 0 88 42" fill="none" xmlns="http://www.w3.org/2000/svg">
<path d="M86.125 11.75V16.625C86.125 19.55 84.175 21.5 81.25 21.5H71.5C68.575 21.5 66.625 19.55 66.625 16.625V11.75C66.625 9.098 68.224 7.2455 70.7103 6.9335C70.9638 6.8945 71.227 6.875 71.5 6.875H81.25C81.5035 6.875 81.7473 6.88474 81.9813 6.92374C84.4968 7.21624 86.125 9.0785 86.125 11.75Z" stroke="white" style="stroke:white;stroke-opacity:1;" stroke-width="2.78345" stroke-linecap="round" stroke-linejoin="round"/>
<path d="M81.9827 6.92375C81.7487 6.88475 81.5049 6.87501 81.2514 6.87501H71.5014C71.2284 6.87501 70.9652 6.89451 70.7117 6.93351C70.8482 6.66051 71.0432 6.40701 71.2772 6.17301L74.4459 2.9945C75.7817 1.6685 77.9462 1.6685 79.2819 2.9945L80.9882 4.72027C81.6122 5.33452 81.9437 6.1145 81.9827 6.92375Z" stroke="white" style="stroke:white;stroke-opacity:1;" stroke-width="2.78345" stroke-linecap="round" stroke-linejoin="round"/>
<path d="M86.125 12.2375H83.2C82.1275 12.2375 81.25 13.115 81.25 14.1875C81.25 15.26 82.1275 16.1375 83.2 16.1375H86.125" stroke="white" style="stroke:white;stroke-opacity:1;" stroke-width="2.78345" stroke-linecap="round" stroke-linejoin="round"/>
<path d="M15.444 6.543H10.114V22H5.72V6.543H0.39V3.059H15.444V6.543ZM18.5666 10.599C18.9826 9.871 19.4593 9.299 19.9966 8.883C20.5426 8.467 21.1666 8.259 21.8686 8.259C22.4753 8.259 22.9693 8.402 23.3506 8.688L23.0906 11.652C23.0473 11.8427 22.9736 11.9727 22.8696 12.042C22.7743 12.1113 22.64 12.146 22.4666 12.146C22.3973 12.146 22.3063 12.1417 22.1936 12.133C22.081 12.1243 21.964 12.1157 21.8426 12.107C21.7213 12.0897 21.5956 12.0767 21.4656 12.068C21.3443 12.0507 21.2316 12.042 21.1276 12.042C20.5383 12.042 20.066 12.198 19.7106 12.51C19.364 12.822 19.0693 13.2553 18.8266 13.81V22H14.7966V8.519H17.1886C17.388 8.519 17.5526 8.53633 17.6826 8.571C17.8213 8.60567 17.934 8.662 18.0206 8.74C18.116 8.80933 18.1853 8.90467 18.2286 9.026C18.2806 9.14733 18.324 9.29467 18.3586 9.468L18.5666 10.599ZM31.5524 16.514C30.7464 16.5487 30.0834 16.618 29.5634 16.722C29.0434 16.826 28.6318 16.956 28.3284 17.112C28.0251 17.268 27.8128 17.4457 27.6914 17.645C27.5788 17.8443 27.5224 18.061 27.5224 18.295C27.5224 18.7543 27.6481 19.0793 27.8994 19.27C28.1508 19.452 28.5191 19.543 29.0044 19.543C29.5244 19.543 29.9794 19.452 30.3694 19.27C30.7594 19.088 31.1538 18.7933 31.5524 18.386V16.514ZM24.2984 10.391C25.1131 9.67167 26.0144 9.13867 27.0024 8.792C27.9991 8.43667 29.0651 8.259 30.2004 8.259C31.0151 8.259 31.7474 8.39333 32.3974 8.662C33.0561 8.922 33.6108 9.29033 34.0614 9.767C34.5208 10.235 34.8718 10.794 35.1144 11.444C35.3571 12.094 35.4784 12.8047 35.4784 13.576V22H33.6324C33.2511 22 32.9608 21.948 32.7614 21.844C32.5708 21.74 32.4104 21.5233 32.2804 21.194L31.9944 20.453C31.6564 20.739 31.3314 20.9903 31.0194 21.207C30.7074 21.4237 30.3824 21.61 30.0444 21.766C29.7151 21.9133 29.3598 22.0217 28.9784 22.091C28.6058 22.169 28.1898 22.208 27.7304 22.208C27.1151 22.208 26.5561 22.13 26.0534 21.974C25.5508 21.8093 25.1218 21.571 24.7664 21.259C24.4198 20.947 24.1511 20.5613 23.9604 20.102C23.7698 19.634 23.6744 19.0967 23.6744 18.49C23.6744 18.0047 23.7958 17.515 24.0384 17.021C24.2811 16.5183 24.7014 16.0633 25.2994 15.656C25.8974 15.24 26.7034 14.8933 27.7174 14.616C28.7314 14.3387 30.0098 14.1827 31.5524 14.148V13.576C31.5524 12.7873 31.3878 12.2197 31.0584 11.873C30.7378 11.5177 30.2784 11.34 29.6804 11.34C29.2038 11.34 28.8138 11.392 28.5104 11.496C28.2071 11.6 27.9341 11.717 27.6914 11.847C27.4574 11.977 27.2278 12.094 27.0024 12.198C26.7771 12.302 26.5084 12.354 26.1964 12.354C25.9191 12.354 25.6851 12.2847 25.4944 12.146C25.3038 12.0073 25.1478 11.8427 25.0264 11.652L24.2984 10.391ZM47.9605 11.717C47.8391 11.8643 47.7221 11.9813 47.6095 12.068C47.4968 12.1547 47.3365 12.198 47.1285 12.198C46.9291 12.198 46.7471 12.1503 46.5825 12.055C46.4265 11.9597 46.2488 11.8557 46.0495 11.743C45.8501 11.6217 45.6161 11.5133 45.3475 11.418C45.0788 11.3227 44.7451 11.275 44.3465 11.275C43.8525 11.275 43.4235 11.366 43.0595 11.548C42.7041 11.73 42.4095 11.99 42.1755 12.328C41.9415 12.666 41.7681 13.082 41.6555 13.576C41.5428 14.0613 41.4865 14.6117 41.4865 15.227C41.4865 16.5183 41.7335 17.5107 42.2275 18.204C42.7301 18.8973 43.4191 19.244 44.2945 19.244C44.7625 19.244 45.1308 19.1877 45.3995 19.075C45.6768 18.9537 45.9108 18.8237 46.1015 18.685C46.2921 18.5377 46.4655 18.4033 46.6215 18.282C46.7861 18.1607 46.9898 18.1 47.2325 18.1C47.5531 18.1 47.7958 18.217 47.9605 18.451L49.1305 19.894C48.7145 20.3707 48.2768 20.7607 47.8175 21.064C47.3581 21.3587 46.8858 21.5927 46.4005 21.766C45.9238 21.9307 45.4428 22.0433 44.9575 22.104C44.4721 22.1733 43.9998 22.208 43.5405 22.208C42.7171 22.208 41.9285 22.052 41.1745 21.74C40.4291 21.428 39.7705 20.9773 39.1985 20.388C38.6351 19.79 38.1845 19.0577 37.8465 18.191C37.5171 17.3243 37.3525 16.3363 37.3525 15.227C37.3525 14.2563 37.4955 13.3507 37.7815 12.51C38.0761 11.6607 38.5051 10.9283 39.0685 10.313C39.6405 9.689 40.3425 9.19933 41.1745 8.844C42.0151 8.48867 42.9858 8.311 44.0865 8.311C45.1438 8.311 46.0711 8.48 46.8685 8.818C47.6658 9.156 48.3851 9.65 49.0265 10.3L47.9605 11.717ZM54.729 2.539V13.446H55.327C55.5783 13.446 55.769 13.4113 55.899 13.342C56.029 13.264 56.159 13.1383 56.289 12.965L58.837 9.169C58.993 8.95233 59.1707 8.792 59.37 8.688C59.5693 8.57533 59.825 8.519 60.137 8.519H63.829L60.345 13.316C60.0157 13.7493 59.6257 14.1047 59.175 14.382C59.3743 14.5293 59.5563 14.7027 59.721 14.902C59.8857 15.0927 60.0417 15.3093 60.189 15.552L63.985 22H60.345C60.0417 22 59.7817 21.9523 59.565 21.857C59.3483 21.753 59.1663 21.5753 59.019 21.324L56.471 16.553C56.3497 16.3363 56.224 16.1977 56.094 16.137C55.964 16.0677 55.769 16.033 55.509 16.033H54.729V22H50.699V2.539H54.729Z" fill="#FDC92E" style="fill:#FDC92E;fill:color(display-p3 0.9922 0.7882 0.1804);fill-opacity:1;"/>
<path d="M33.3255 22.559L27.4755 41.5H23.4975L19.9355 29.761C19.8662 29.579 19.8012 29.3797 19.7405 29.163C19.6798 28.9377 19.6192 28.7037 19.5585 28.461C19.4978 28.7037 19.4372 28.9377 19.3765 29.163C19.3158 29.3797 19.2508 29.579 19.1815 29.761L15.5675 41.5H11.5895L5.7395 22.559H9.4315C9.81283 22.559 10.1292 22.6457 10.3805 22.819C10.6405 22.9923 10.8095 23.222 10.8875 23.508L13.4875 33.388C13.5655 33.7 13.6435 34.0423 13.7215 34.415C13.7995 34.779 13.8775 35.1603 13.9555 35.559C14.1115 34.7443 14.3022 34.0207 14.5275 33.388L17.5955 23.508C17.6735 23.2653 17.8382 23.0487 18.0895 22.858C18.3495 22.6587 18.6615 22.559 19.0255 22.559H20.3255C20.7068 22.559 21.0145 22.65 21.2485 22.832C21.4825 23.0053 21.6602 23.2307 21.7815 23.508L24.8235 33.388C25.0488 33.9947 25.2395 34.6837 25.3955 35.455C25.4648 35.065 25.5342 34.701 25.6035 34.363C25.6815 34.0163 25.7595 33.6913 25.8375 33.388L28.4375 23.508C28.5068 23.2567 28.6715 23.0357 28.9315 22.845C29.1915 22.6543 29.5035 22.559 29.8675 22.559H33.3255ZM39.9821 36.014C39.1761 36.0487 38.5131 36.118 37.9931 36.222C37.4731 36.326 37.0614 36.456 36.7581 36.612C36.4548 36.768 36.2424 36.9457 36.1211 37.145C36.0084 37.3443 35.9521 37.561 35.9521 37.795C35.9521 38.2543 36.0778 38.5793 36.3291 38.77C36.5804 38.952 36.9488 39.043 37.4341 39.043C37.9541 39.043 38.4091 38.952 38.7991 38.77C39.1891 38.588 39.5834 38.2933 39.9821 37.886V36.014ZM32.7281 29.891C33.5428 29.1717 34.4441 28.6387 35.4321 28.292C36.4288 27.9367 37.4948 27.759 38.6301 27.759C39.4448 27.759 40.1771 27.8933 40.8271 28.162C41.4858 28.422 42.0404 28.7903 42.4911 29.267C42.9504 29.735 43.3014 30.294 43.5441 30.944C43.7868 31.594 43.9081 32.3047 43.9081 33.076V41.5H42.0621C41.6808 41.5 41.3904 41.448 41.1911 41.344C41.0004 41.24 40.8401 41.0233 40.7101 40.694L40.4241 39.953C40.0861 40.239 39.7611 40.4903 39.4491 40.707C39.1371 40.9237 38.8121 41.11 38.4741 41.266C38.1448 41.4133 37.7894 41.5217 37.4081 41.591C37.0354 41.669 36.6194 41.708 36.1601 41.708C35.5448 41.708 34.9858 41.63 34.4831 41.474C33.9804 41.3093 33.5514 41.071 33.1961 40.759C32.8494 40.447 32.5808 40.0613 32.3901 39.602C32.1994 39.134 32.1041 38.5967 32.1041 37.99C32.1041 37.5047 32.2254 37.015 32.4681 36.521C32.7108 36.0183 33.1311 35.5633 33.7291 35.156C34.3271 34.74 35.1331 34.3933 36.1471 34.116C37.1611 33.8387 38.4394 33.6827 39.9821 33.648V33.076C39.9821 32.2873 39.8174 31.7197 39.4881 31.373C39.1674 31.0177 38.7081 30.84 38.1101 30.84C37.6334 30.84 37.2434 30.892 36.9401 30.996C36.6368 31.1 36.3638 31.217 36.1211 31.347C35.8871 31.477 35.6574 31.594 35.4321 31.698C35.2068 31.802 34.9381 31.854 34.6261 31.854C34.3488 31.854 34.1148 31.7847 33.9241 31.646C33.7334 31.5073 33.5774 31.3427 33.4561 31.152L32.7281 29.891ZM50.5141 22.039V41.5H46.4841V22.039H50.5141ZM57.268 22.039V41.5H53.238V22.039H57.268ZM68.377 33.141C68.377 32.8203 68.3336 32.5083 68.247 32.205C68.169 31.9017 68.0346 31.633 67.844 31.399C67.662 31.1563 67.4193 30.9613 67.116 30.814C66.8126 30.6667 66.4443 30.593 66.011 30.593C65.2483 30.593 64.6503 30.814 64.217 31.256C63.7836 31.6893 63.4976 32.3177 63.359 33.141H68.377ZM63.307 35.481C63.437 36.6077 63.7793 37.4267 64.334 37.938C64.8886 38.4407 65.6036 38.692 66.479 38.692C66.947 38.692 67.35 38.6357 67.688 38.523C68.026 38.4103 68.325 38.2847 68.585 38.146C68.8536 38.0073 69.0963 37.8817 69.313 37.769C69.5383 37.6563 69.7723 37.6 70.015 37.6C70.3356 37.6 70.5783 37.717 70.743 37.951L71.913 39.394C71.497 39.8707 71.0463 40.2607 70.561 40.564C70.0843 40.8587 69.5903 41.0927 69.079 41.266C68.5763 41.4307 68.0693 41.5433 67.558 41.604C67.0553 41.6733 66.5743 41.708 66.115 41.708C65.1703 41.708 64.282 41.5563 63.45 41.253C62.6266 40.941 61.903 40.4817 61.279 39.875C60.6636 39.2683 60.174 38.5143 59.81 37.613C59.4546 36.7117 59.277 35.663 59.277 34.467C59.277 33.5657 59.4286 32.712 59.732 31.906C60.044 31.1 60.486 30.3937 61.058 29.787C61.6386 29.1803 62.3363 28.6993 63.151 28.344C63.9743 27.9887 64.9016 27.811 65.933 27.811C66.8256 27.811 67.6403 27.9497 68.377 28.227C69.1223 28.5043 69.7593 28.9073 70.288 29.436C70.8253 29.9647 71.2413 30.6147 71.536 31.386C71.8393 32.1487 71.991 33.0153 71.991 33.986C71.991 34.2893 71.978 34.5363 71.952 34.727C71.926 34.9177 71.8783 35.0693 71.809 35.182C71.7396 35.2947 71.6443 35.3727 71.523 35.416C71.4103 35.4593 71.263 35.481 71.081 35.481H63.307ZM78.6528 41.708C78.0115 41.708 77.4438 41.617 76.9498 41.435C76.4645 41.2443 76.0528 40.98 75.7148 40.642C75.3855 40.2953 75.1342 39.8793 74.9608 39.394C74.7875 38.9087 74.7008 38.367 74.7008 37.769V30.801H73.5568C73.3488 30.801 73.1712 30.736 73.0238 30.606C72.8765 30.4673 72.8028 30.268 72.8028 30.008V28.435L74.9478 28.019L75.7408 24.73C75.8448 24.314 76.1395 24.106 76.6248 24.106H78.7308V28.045H82.0718V30.801H78.7308V37.496C78.7308 37.808 78.8045 38.068 78.9518 38.276C79.1078 38.4753 79.3288 38.575 79.6148 38.575C79.7622 38.575 79.8835 38.562 79.9788 38.536C80.0828 38.5013 80.1695 38.4667 80.2388 38.432C80.3168 38.3887 80.3862 38.354 80.4468 38.328C80.5162 38.2933 80.5942 38.276 80.6808 38.276C80.8022 38.276 80.8975 38.3063 80.9668 38.367C81.0448 38.419 81.1228 38.5057 81.2008 38.627L82.4228 40.538C81.9028 40.928 81.3178 41.2227 80.6678 41.422C80.0178 41.6127 79.3462 41.708 78.6528 41.708Z" fill="white" style="fill:white;fill-opacity:1;"/>
</svg>
