<svg width="195" height="27" viewBox="0 0 195 27" fill="none" xmlns="http://www.w3.org/2000/svg">
<path d="M42.8876 7.0896H36.7116V25H31.6202V7.0896H25.4442V3.0526H42.8876V7.0896ZM46.5059 11.7894C46.9879 10.9458 47.5403 10.283 48.1629 9.80101C48.7956 9.31898 49.5186 9.07797 50.332 9.07797C51.035 9.07797 51.6074 9.24367 52.0493 9.57506L51.748 13.0095C51.6978 13.2305 51.6124 13.3811 51.4919 13.4614C51.3814 13.5418 51.2258 13.5819 51.0249 13.5819C50.9446 13.5819 50.8392 13.5769 50.7086 13.5669C50.5781 13.5568 50.4425 13.5468 50.3019 13.5367C50.1613 13.5167 50.0157 13.5016 49.8651 13.4916C49.7245 13.4715 49.5939 13.4614 49.4734 13.4614C48.7905 13.4614 48.2432 13.6422 47.8315 14.0037C47.4298 14.3652 47.0884 14.8673 46.8072 15.51V25H42.1375V9.37924H44.9092C45.1402 9.37924 45.331 9.39932 45.4816 9.43949C45.6423 9.47966 45.7728 9.54494 45.8733 9.63532C45.9837 9.71565 46.0641 9.82612 46.1143 9.96671C46.1745 10.1073 46.2247 10.278 46.2649 10.4789L46.5059 11.7894ZM61.5529 18.6432C60.6189 18.6834 59.8507 18.7637 59.2482 18.8843C58.6456 19.0048 58.1686 19.1554 57.8171 19.3362C57.4657 19.5169 57.2196 19.7228 57.079 19.9538C56.9485 20.1847 56.8832 20.4358 56.8832 20.7069C56.8832 21.2392 57.0288 21.6158 57.32 21.8367C57.6113 22.0476 58.0381 22.153 58.6004 22.153C59.203 22.153 59.7302 22.0476 60.1821 21.8367C60.634 21.6258 61.0909 21.2844 61.5529 20.8124V18.6432ZM53.1475 11.5484C54.0914 10.7149 55.1358 10.0973 56.2807 9.69557C57.4355 9.28384 58.6707 9.07797 59.9863 9.07797C60.9302 9.07797 61.7788 9.23363 62.532 9.54494C63.2952 9.8462 63.9379 10.273 64.4601 10.8253C64.9923 11.3676 65.399 12.0153 65.6802 12.7685C65.9614 13.5217 66.102 14.3451 66.102 15.2389V25H63.963C63.5211 25 63.1847 24.9397 62.9538 24.8192C62.7328 24.6987 62.547 24.4477 62.3964 24.0661L62.065 23.2075C61.6734 23.5388 61.2968 23.8301 60.9353 24.0811C60.5737 24.3322 60.1971 24.5481 59.8055 24.7289C59.4239 24.8996 59.0122 25.0251 58.5703 25.1054C58.1385 25.1958 57.6565 25.241 57.1242 25.241C56.4112 25.241 55.7635 25.1506 55.181 24.9699C54.5986 24.7791 54.1015 24.5029 53.6898 24.1414C53.2881 23.7799 52.9768 23.333 52.7558 22.8007C52.5349 22.2585 52.4244 21.6358 52.4244 20.9329C52.4244 20.3705 52.565 19.8031 52.8462 19.2307C53.1274 18.6483 53.6144 18.121 54.3074 17.6491C55.0003 17.167 55.9342 16.7653 57.1091 16.444C58.2841 16.1226 59.7653 15.9419 61.5529 15.9017V15.2389C61.5529 14.3251 61.3621 13.6673 60.9804 13.2656C60.6089 12.8539 60.0766 12.648 59.3837 12.648C58.8314 12.648 58.3795 12.7083 58.028 12.8288C57.6765 12.9493 57.3602 13.0848 57.079 13.2355C56.8079 13.3861 56.5418 13.5217 56.2807 13.6422C56.0196 13.7627 55.7083 13.8229 55.3467 13.8229C55.0254 13.8229 54.7542 13.7426 54.5333 13.5819C54.3124 13.4213 54.1316 13.2305 53.991 13.0095L53.1475 11.5484ZM80.5652 13.0848C80.4246 13.2556 80.2891 13.3911 80.1585 13.4916C80.028 13.592 79.8422 13.6422 79.6012 13.6422C79.3702 13.6422 79.1593 13.587 78.9685 13.4765C78.7878 13.366 78.5819 13.2455 78.3509 13.115C78.1199 12.9744 77.8488 12.8488 77.5375 12.7384C77.2262 12.6279 76.8396 12.5727 76.3776 12.5727C75.8052 12.5727 75.3081 12.6781 74.8863 12.889C74.4746 13.0999 74.1332 13.4012 73.862 13.7928C73.5909 14.1845 73.39 14.6665 73.2595 15.2389C73.1289 15.8013 73.0637 16.439 73.0637 17.152C73.0637 18.6483 73.3499 19.7981 73.9223 20.6015C74.5047 21.4049 75.3031 21.8066 76.3174 21.8066C76.8596 21.8066 77.2864 21.7413 77.5977 21.6107C77.9191 21.4701 78.1902 21.3195 78.4112 21.1588C78.6321 20.9881 78.8329 20.8325 79.0137 20.6919C79.2045 20.5513 79.4405 20.481 79.7217 20.481C80.0933 20.481 80.3744 20.6165 80.5652 20.8877L81.9209 22.5597C81.4389 23.1121 80.9318 23.564 80.3995 23.9154C79.8673 24.2569 79.32 24.528 78.7576 24.7289C78.2053 24.9197 77.648 25.0502 77.0856 25.1205C76.5232 25.2008 75.9759 25.241 75.4437 25.241C74.4897 25.241 73.5758 25.0603 72.7021 24.6987C71.8385 24.3372 71.0753 23.815 70.4125 23.1321C69.7598 22.4392 69.2376 21.5906 68.8459 20.5864C68.4643 19.5822 68.2735 18.4374 68.2735 17.152C68.2735 16.0272 68.4392 14.9778 68.7706 14.0037C69.112 13.0196 69.6091 12.171 70.2619 11.458C70.9247 10.7349 71.7381 10.1676 72.7021 9.75582C73.6762 9.34409 74.801 9.13822 76.0763 9.13822C77.3015 9.13822 78.376 9.33405 79.2999 9.7257C80.2238 10.1173 81.0573 10.6898 81.8004 11.4429L80.5652 13.0848ZM88.4081 2.45007V15.0883H89.101C89.3922 15.0883 89.6132 15.0481 89.7638 14.9678C89.9144 14.8774 90.0651 14.7318 90.2157 14.5309L93.1681 10.1324C93.3489 9.88135 93.5548 9.69557 93.7857 9.57506C94.0167 9.44451 94.313 9.37924 94.6745 9.37924H98.9525L94.9155 14.9376C94.5339 15.4398 94.082 15.8515 93.5598 16.1728C93.7908 16.3436 94.0016 16.5444 94.1925 16.7754C94.3833 16.9963 94.564 17.2474 94.7347 17.5285L99.1333 25H94.9155C94.564 25 94.2627 24.9448 94.0117 24.8343C93.7606 24.7138 93.5497 24.5079 93.379 24.2167L90.4266 18.6884C90.286 18.4374 90.1404 18.2767 89.9898 18.2064C89.8391 18.1261 89.6132 18.0859 89.3119 18.0859H88.4081V25H83.7384V2.45007H88.4081Z" fill="#FDC92E" style="fill:#FDC92E;fill:color(display-p3 0.9922 0.7882 0.1804);fill-opacity:1;"/>
<path d="M130.157 3.0526L123.379 25H118.769L114.642 11.3977C114.561 11.1868 114.486 10.9559 114.416 10.7048C114.345 10.4437 114.275 10.1726 114.205 9.89139C114.135 10.1726 114.064 10.4437 113.994 10.7048C113.924 10.9559 113.848 11.1868 113.768 11.3977L109.58 25H104.971L98.1925 3.0526H102.471C102.912 3.0526 103.279 3.15303 103.57 3.35387C103.871 3.55472 104.067 3.82084 104.158 4.15223L107.17 15.6004C107.261 15.962 107.351 16.3586 107.441 16.7904C107.532 17.2122 107.622 17.6541 107.713 18.116C107.893 17.172 108.114 16.3335 108.375 15.6004L111.93 4.15223C112.021 3.87105 112.212 3.61999 112.503 3.39906C112.804 3.16809 113.166 3.0526 113.587 3.0526H115.094C115.536 3.0526 115.892 3.15805 116.163 3.36894C116.434 3.56978 116.64 3.83088 116.781 4.15223L120.306 15.6004C120.567 16.3034 120.788 17.1017 120.968 17.9955C121.049 17.5436 121.129 17.1218 121.209 16.7302C121.3 16.3285 121.39 15.9519 121.481 15.6004L124.493 4.15223C124.574 3.86101 124.764 3.60493 125.066 3.384C125.367 3.16307 125.728 3.0526 126.15 3.0526H130.157ZM137.87 18.6432C136.936 18.6834 136.168 18.7637 135.566 18.8843C134.963 19.0048 134.486 19.1554 134.135 19.3362C133.783 19.5169 133.537 19.7228 133.396 19.9538C133.266 20.1847 133.201 20.4358 133.201 20.7069C133.201 21.2392 133.346 21.6158 133.637 21.8367C133.929 22.0476 134.355 22.153 134.918 22.153C135.52 22.153 136.048 22.0476 136.499 21.8367C136.951 21.6258 137.408 21.2844 137.87 20.8124V18.6432ZM129.465 11.5484C130.409 10.7149 131.453 10.0973 132.598 9.69557C133.753 9.28384 134.988 9.07797 136.304 9.07797C137.248 9.07797 138.096 9.23363 138.849 9.54494C139.613 9.8462 140.255 10.273 140.777 10.8253C141.31 11.3676 141.716 12.0153 141.998 12.7685C142.279 13.5217 142.419 14.3451 142.419 15.2389V25H140.28C139.839 25 139.502 24.9397 139.271 24.8192C139.05 24.6987 138.864 24.4477 138.714 24.0661L138.382 23.2075C137.991 23.5388 137.614 23.8301 137.253 24.0811C136.891 24.3322 136.515 24.5481 136.123 24.7289C135.741 24.8996 135.33 25.0251 134.888 25.1054C134.456 25.1958 133.974 25.241 133.442 25.241C132.729 25.241 132.081 25.1506 131.498 24.9699C130.916 24.7791 130.419 24.5029 130.007 24.1414C129.605 23.7799 129.294 23.333 129.073 22.8007C128.852 22.2585 128.742 21.6358 128.742 20.9329C128.742 20.3705 128.882 19.8031 129.164 19.2307C129.445 18.6483 129.932 18.121 130.625 17.6491C131.318 17.167 132.252 16.7653 133.427 16.444C134.601 16.1226 136.083 15.9419 137.87 15.9017V15.2389C137.87 14.3251 137.679 13.6673 137.298 13.2656C136.926 12.8539 136.394 12.648 135.701 12.648C135.149 12.648 134.697 12.7083 134.345 12.8288C133.994 12.9493 133.678 13.0848 133.396 13.2355C133.125 13.3861 132.859 13.5217 132.598 13.6422C132.337 13.7627 132.026 13.8229 131.664 13.8229C131.343 13.8229 131.072 13.7426 130.851 13.5819C130.63 13.4213 130.449 13.2305 130.308 13.0095L129.465 11.5484ZM150.074 2.45007V25H145.404V2.45007H150.074ZM157.9 2.45007V25H153.23V2.45007H157.9ZM170.772 15.3142C170.772 14.9427 170.722 14.5811 170.621 14.2297C170.531 13.8782 170.375 13.5669 170.154 13.2957C169.944 13.0145 169.662 12.7886 169.311 12.6179C168.959 12.4472 168.533 12.3618 168.03 12.3618C167.147 12.3618 166.454 12.6179 165.952 13.13C165.45 13.6321 165.118 14.3602 164.958 15.3142H170.772ZM164.897 18.0256C165.048 19.3311 165.445 20.2801 166.087 20.8726C166.73 21.4551 167.558 21.7463 168.573 21.7463C169.115 21.7463 169.582 21.681 169.974 21.5505C170.365 21.4199 170.712 21.2743 171.013 21.1136C171.324 20.953 171.606 20.8073 171.857 20.6768C172.118 20.5463 172.389 20.481 172.67 20.481C173.042 20.481 173.323 20.6165 173.514 20.8877L174.869 22.5597C174.387 23.1121 173.865 23.564 173.303 23.9154C172.75 24.2569 172.178 24.528 171.585 24.7289C171.003 24.9197 170.416 25.0502 169.823 25.1205C169.241 25.2008 168.683 25.241 168.151 25.241C167.056 25.241 166.027 25.0653 165.063 24.7138C164.109 24.3523 163.27 23.82 162.547 23.1171C161.834 22.4141 161.267 21.5404 160.845 20.496C160.433 19.4516 160.228 18.2365 160.228 16.8507C160.228 15.8063 160.403 14.8171 160.755 13.8832C161.116 12.9493 161.629 12.1308 162.291 11.4279C162.964 10.7249 163.773 10.1676 164.717 9.75582C165.671 9.34409 166.745 9.13822 167.94 9.13822C168.974 9.13822 169.918 9.2989 170.772 9.62025C171.636 9.94161 172.374 10.4086 172.986 11.0212C173.609 11.6337 174.091 12.3869 174.432 13.2807C174.784 14.1644 174.96 15.1686 174.96 16.2933C174.96 16.6448 174.945 16.931 174.914 17.152C174.884 17.3729 174.829 17.5486 174.749 17.6792C174.668 17.8097 174.558 17.9001 174.417 17.9503C174.287 18.0005 174.116 18.0256 173.905 18.0256H164.897ZM182.679 25.241C181.936 25.241 181.278 25.1356 180.706 24.9247C180.143 24.7038 179.666 24.3975 179.275 24.0058C178.893 23.6041 178.602 23.1221 178.401 22.5597C178.2 21.9974 178.1 21.3697 178.1 20.6768V12.6028H176.774C176.533 12.6028 176.327 12.5275 176.156 12.3769C175.986 12.2162 175.9 11.9852 175.9 11.6839V9.86127L178.386 9.37924L179.305 5.56819C179.425 5.08616 179.767 4.84515 180.329 4.84515H182.769V9.40936H186.641V12.6028H182.769V20.3605C182.769 20.722 182.855 21.0233 183.025 21.2643C183.206 21.4952 183.462 21.6107 183.794 21.6107C183.964 21.6107 184.105 21.5957 184.215 21.5655C184.336 21.5254 184.436 21.4852 184.517 21.445C184.607 21.3948 184.687 21.3547 184.758 21.3245C184.838 21.2844 184.928 21.2643 185.029 21.2643C185.169 21.2643 185.28 21.2994 185.36 21.3697C185.451 21.43 185.541 21.5304 185.631 21.671L187.047 23.8853C186.445 24.3372 185.767 24.6786 185.014 24.9096C184.261 25.1305 183.482 25.241 182.679 25.241Z" fill="white" style="fill:white;fill-opacity:1;"/>
<path d="M24.5951 13.2976V18.9463C24.5951 22.3356 22.3356 24.5951 18.9463 24.5951H7.64878C4.25951 24.5951 2 22.3356 2 18.9463V13.2976C2 10.2246 3.8528 8.07808 6.73368 7.71656C7.02741 7.67137 7.33245 7.64877 7.64878 7.64877H18.9463C19.2401 7.64877 19.5225 7.66006 19.7937 7.70525C22.7084 8.04418 24.5951 10.202 24.5951 13.2976Z" stroke="white" style="stroke:white;stroke-opacity:1;" stroke-width="3.22525" stroke-linecap="round" stroke-linejoin="round"/>
<path d="M19.7952 7.70527C19.5241 7.66008 19.2417 7.64879 18.9479 7.64879H7.65038C7.33405 7.64879 7.02901 7.67139 6.73528 7.71658C6.89344 7.40024 7.11939 7.10651 7.39053 6.83537L11.0622 3.15235C12.61 1.61588 15.1181 1.61588 16.6658 3.15235L18.6429 5.15204C19.3659 5.86379 19.7501 6.76757 19.7952 7.70527Z" stroke="white" style="stroke:white;stroke-opacity:1;" stroke-width="3.22525" stroke-linecap="round" stroke-linejoin="round"/>
<path d="M24.5951 13.8625H21.2058C19.9631 13.8625 18.9463 14.8792 18.9463 16.122C18.9463 17.3647 19.9631 18.3815 21.2058 18.3815H24.5951" stroke="white" style="stroke:white;stroke-opacity:1;" stroke-width="3.22525" stroke-linecap="round" stroke-linejoin="round"/>
<path d="M191.234 24.5951C189.154 24.5951 187.468 22.9091 187.468 20.8293C187.468 18.7494 189.154 17.0634 191.234 17.0634C193.314 17.0634 195 18.7494 195 20.8293C195 21.828 194.603 22.7859 193.897 23.4921C193.191 24.1984 192.233 24.5951 191.234 24.5951Z" fill="white" style="fill:white;fill-opacity:1;"/>
</svg>
